<mxfile host="Electron" agent="Mozilla/5.0 (X11; Linux x86_64) AppleWebKit/537.36 (KHTML, like Gecko) draw.io/24.7.17 Chrome/128.0.6613.36 Electron/32.0.1 Safari/537.36" version="24.7.17">
  <diagram name="Page-1" id="qDiOr9Jhnmizixkr0bvb">
    <mxGraphModel dx="586" dy="397" grid="1" gridSize="10" guides="1" tooltips="1" connect="1" arrows="1" fold="1" page="1" pageScale="1" pageWidth="850" pageHeight="1100" math="1" shadow="0">
      <root>
        <mxCell id="0" />
        <mxCell id="1" parent="0" />
        <mxCell id="3ZFB9mKhi2XY3Hub_Qie-100" value="&lt;blockquote style=&quot;margin: 0 0 0 40px; border: none; padding: 0px;&quot;&gt;$$y^B$$&lt;/blockquote&gt;" style="text;html=1;align=center;verticalAlign=middle;resizable=0;points=[];autosize=1;strokeColor=none;fillColor=none;fontColor=#009900;shadow=1;" parent="1" vertex="1">
          <mxGeometry x="300" y="130" width="110" height="30" as="geometry" />
        </mxCell>
        <mxCell id="3ZFB9mKhi2XY3Hub_Qie-1" value="" style="ellipse;whiteSpace=wrap;html=1;shadow=1;strokeColor=#36393d;fillColor=#eeeeee;" parent="1" vertex="1">
          <mxGeometry x="140" y="80" width="120" height="80" as="geometry" />
        </mxCell>
        <mxCell id="3ZFB9mKhi2XY3Hub_Qie-2" value="" style="ellipse;whiteSpace=wrap;html=1;shadow=1;strokeColor=#36393d;fillColor=#eeeeee;" parent="1" vertex="1">
          <mxGeometry x="340" y="40" width="120" height="80" as="geometry" />
        </mxCell>
        <mxCell id="3ZFB9mKhi2XY3Hub_Qie-3" value="" style="ellipse;whiteSpace=wrap;html=1;shadow=1;strokeColor=#36393d;fillColor=#eeeeee;" parent="1" vertex="1">
          <mxGeometry x="180" y="200" width="120" height="80" as="geometry" />
        </mxCell>
        <mxCell id="3ZFB9mKhi2XY3Hub_Qie-4" value="" style="ellipse;whiteSpace=wrap;html=1;shadow=1;strokeColor=#36393d;fillColor=#eeeeee;" parent="1" vertex="1">
          <mxGeometry x="390" y="160" width="120" height="80" as="geometry" />
        </mxCell>
        <mxCell id="3ZFB9mKhi2XY3Hub_Qie-5" value="" style="endArrow=none;html=1;rounded=0;shadow=1;" parent="1" source="3ZFB9mKhi2XY3Hub_Qie-1" edge="1">
          <mxGeometry width="50" height="50" relative="1" as="geometry">
            <mxPoint x="270" y="170" as="sourcePoint" />
            <mxPoint x="320" y="160" as="targetPoint" />
          </mxGeometry>
        </mxCell>
        <mxCell id="3ZFB9mKhi2XY3Hub_Qie-6" value="" style="endArrow=none;html=1;rounded=0;shadow=1;" parent="1" target="3ZFB9mKhi2XY3Hub_Qie-2" edge="1">
          <mxGeometry width="50" height="50" relative="1" as="geometry">
            <mxPoint x="320" y="160" as="sourcePoint" />
            <mxPoint x="370" y="110" as="targetPoint" />
          </mxGeometry>
        </mxCell>
        <mxCell id="3ZFB9mKhi2XY3Hub_Qie-7" value="" style="endArrow=none;html=1;rounded=0;shadow=1;" parent="1" target="3ZFB9mKhi2XY3Hub_Qie-4" edge="1">
          <mxGeometry width="50" height="50" relative="1" as="geometry">
            <mxPoint x="320" y="160" as="sourcePoint" />
            <mxPoint x="370" y="110" as="targetPoint" />
          </mxGeometry>
        </mxCell>
        <mxCell id="3ZFB9mKhi2XY3Hub_Qie-8" value="" style="endArrow=none;html=1;rounded=0;shadow=1;" parent="1" source="3ZFB9mKhi2XY3Hub_Qie-3" edge="1">
          <mxGeometry width="50" height="50" relative="1" as="geometry">
            <mxPoint x="270" y="210" as="sourcePoint" />
            <mxPoint x="320" y="160" as="targetPoint" />
          </mxGeometry>
        </mxCell>
        <mxCell id="3ZFB9mKhi2XY3Hub_Qie-12" value="" style="endArrow=classic;html=1;rounded=0;shadow=1;" parent="1" edge="1">
          <mxGeometry width="50" height="50" relative="1" as="geometry">
            <mxPoint x="239.70999999999998" y="240" as="sourcePoint" />
            <mxPoint x="240" y="180" as="targetPoint" />
          </mxGeometry>
        </mxCell>
        <mxCell id="3ZFB9mKhi2XY3Hub_Qie-13" value="" style="endArrow=classic;html=1;rounded=0;shadow=1;" parent="1" edge="1">
          <mxGeometry width="50" height="50" relative="1" as="geometry">
            <mxPoint x="449.71000000000004" y="200" as="sourcePoint" />
            <mxPoint x="450" y="140" as="targetPoint" />
          </mxGeometry>
        </mxCell>
        <mxCell id="3ZFB9mKhi2XY3Hub_Qie-15" value="" style="endArrow=classic;html=1;rounded=0;fillColor=#0050ef;strokeColor=#0000FF;shadow=1;entryX=0.637;entryY=0.946;entryDx=0;entryDy=0;entryPerimeter=0;" parent="1" target="3ZFB9mKhi2XY3Hub_Qie-98" edge="1">
          <mxGeometry width="50" height="50" relative="1" as="geometry">
            <mxPoint x="320" y="160" as="sourcePoint" />
            <mxPoint x="320" y="121" as="targetPoint" />
          </mxGeometry>
        </mxCell>
        <mxCell id="3ZFB9mKhi2XY3Hub_Qie-17" value="" style="endArrow=classic;html=1;rounded=0;fillColor=#60a917;strokeColor=#009900;shadow=1;" parent="1" edge="1">
          <mxGeometry width="50" height="50" relative="1" as="geometry">
            <mxPoint x="320" y="160" as="sourcePoint" />
            <mxPoint x="360" y="150" as="targetPoint" />
          </mxGeometry>
        </mxCell>
        <mxCell id="3ZFB9mKhi2XY3Hub_Qie-18" value="" style="endArrow=classic;html=1;rounded=0;fillColor=#e51400;strokeColor=#FF0000;shadow=1;" parent="1" edge="1">
          <mxGeometry width="50" height="50" relative="1" as="geometry">
            <mxPoint x="320" y="160" as="sourcePoint" />
            <mxPoint x="330" y="190" as="targetPoint" />
          </mxGeometry>
        </mxCell>
        <mxCell id="3ZFB9mKhi2XY3Hub_Qie-21" value="&lt;blockquote style=&quot;margin: 0 0 0 40px; border: none; padding: 0px;&quot;&gt;$$u_1$$&lt;/blockquote&gt;" style="text;html=1;align=center;verticalAlign=middle;resizable=0;points=[];autosize=1;strokeColor=none;fillColor=none;shadow=1;" parent="1" vertex="1">
          <mxGeometry x="390" y="130" width="110" height="30" as="geometry" />
        </mxCell>
        <mxCell id="3ZFB9mKhi2XY3Hub_Qie-22" value="&lt;blockquote style=&quot;margin: 0 0 0 40px; border: none; padding: 0px;&quot;&gt;$$u_2$$&lt;/blockquote&gt;" style="text;html=1;align=center;verticalAlign=middle;resizable=0;points=[];autosize=1;strokeColor=none;fillColor=none;shadow=1;" parent="1" vertex="1">
          <mxGeometry x="180" y="170" width="110" height="30" as="geometry" />
        </mxCell>
        <mxCell id="3ZFB9mKhi2XY3Hub_Qie-24" value="&lt;blockquote style=&quot;margin: 0 0 0 40px; border: none; padding: 0px;&quot;&gt;$$u_3$$&lt;/blockquote&gt;" style="text;html=1;align=center;verticalAlign=middle;resizable=0;points=[];autosize=1;strokeColor=none;fillColor=none;shadow=1;" parent="1" vertex="1">
          <mxGeometry x="140" y="50" width="110" height="30" as="geometry" />
        </mxCell>
        <mxCell id="3ZFB9mKhi2XY3Hub_Qie-29" value="" style="verticalLabelPosition=bottom;verticalAlign=top;html=1;shape=mxgraph.basic.arc;startAngle=0.6783685328255156;endAngle=0.4046382855680463;fillStyle=dots;fillColor=none;strokeColor=#000000;shadow=1;" parent="1" vertex="1">
          <mxGeometry x="160" y="97.5" width="80" height="42.5" as="geometry" />
        </mxCell>
        <mxCell id="3ZFB9mKhi2XY3Hub_Qie-32" value="&lt;blockquote style=&quot;margin: 0 0 0 40px; border: none; padding: 0px;&quot;&gt;$$-b_3u_3$$&lt;/blockquote&gt;" style="text;html=1;align=center;verticalAlign=middle;resizable=0;points=[];autosize=1;strokeColor=none;fillColor=none;fontColor=#000000;shadow=1;" parent="1" vertex="1">
          <mxGeometry x="100" y="120" width="130" height="30" as="geometry" />
        </mxCell>
        <mxCell id="3ZFB9mKhi2XY3Hub_Qie-30" value="" style="endArrow=classic;html=1;rounded=0;exitX=0.792;exitY=0.909;exitDx=0;exitDy=0;exitPerimeter=0;strokeColor=#000000;shadow=1;" parent="1" source="3ZFB9mKhi2XY3Hub_Qie-29" edge="1">
          <mxGeometry width="50" height="50" relative="1" as="geometry">
            <mxPoint x="212.8" y="140.00249999999997" as="sourcePoint" />
            <mxPoint x="210" y="140" as="targetPoint" />
            <Array as="points" />
          </mxGeometry>
        </mxCell>
        <mxCell id="3ZFB9mKhi2XY3Hub_Qie-56" value="&lt;blockquote style=&quot;margin: 0 0 0 40px; border: none; padding: 0px;&quot;&gt;$$b_2u_2$$&lt;/blockquote&gt;" style="text;html=1;align=center;verticalAlign=middle;resizable=0;points=[];autosize=1;strokeColor=none;fillColor=none;flipH=1;fontColor=#000000;shadow=1;" parent="1" vertex="1">
          <mxGeometry x="170" y="240" width="130" height="30" as="geometry" />
        </mxCell>
        <mxCell id="3ZFB9mKhi2XY3Hub_Qie-55" value="" style="verticalLabelPosition=bottom;verticalAlign=top;html=1;shape=mxgraph.basic.arc;startAngle=0.6722301462187704;endAngle=0.4046382855680463;flipH=1;strokeColor=#000000;shadow=1;" parent="1" vertex="1">
          <mxGeometry x="200" y="217.5" width="80" height="42.5" as="geometry" />
        </mxCell>
        <mxCell id="3ZFB9mKhi2XY3Hub_Qie-61" value="" style="verticalLabelPosition=bottom;verticalAlign=top;html=1;shape=mxgraph.basic.arc;startAngle=0.6783685328255156;endAngle=0.4046382855680463;strokeColor=#000000;shadow=1;" parent="1" vertex="1">
          <mxGeometry x="410" y="177.5" width="80" height="42.5" as="geometry" />
        </mxCell>
        <mxCell id="3ZFB9mKhi2XY3Hub_Qie-62" value="&lt;blockquote style=&quot;margin: 0 0 0 40px; border: none; padding: 0px;&quot;&gt;$$-b_1u_1$$&lt;/blockquote&gt;" style="text;html=1;align=center;verticalAlign=middle;resizable=0;points=[];autosize=1;strokeColor=none;fillColor=none;fontColor=#000000;shadow=1;" parent="1" vertex="1">
          <mxGeometry x="350" y="200" width="130" height="30" as="geometry" />
        </mxCell>
        <mxCell id="3ZFB9mKhi2XY3Hub_Qie-63" value="" style="endArrow=classic;html=1;rounded=0;exitX=0.792;exitY=0.909;exitDx=0;exitDy=0;exitPerimeter=0;strokeColor=#000000;shadow=1;" parent="1" source="3ZFB9mKhi2XY3Hub_Qie-61" edge="1">
          <mxGeometry width="50" height="50" relative="1" as="geometry">
            <mxPoint x="462.8" y="220.00249999999997" as="sourcePoint" />
            <mxPoint x="460" y="220" as="targetPoint" />
            <Array as="points" />
          </mxGeometry>
        </mxCell>
        <mxCell id="3ZFB9mKhi2XY3Hub_Qie-78" value="" style="endArrow=classic;html=1;rounded=0;exitX=0.793;exitY=0.906;exitDx=0;exitDy=0;exitPerimeter=0;strokeColor=#000000;shadow=1;" parent="1" source="3ZFB9mKhi2XY3Hub_Qie-55" edge="1">
          <mxGeometry width="50" height="50" relative="1" as="geometry">
            <mxPoint x="140" y="250" as="sourcePoint" />
            <mxPoint x="230" y="260" as="targetPoint" />
          </mxGeometry>
        </mxCell>
        <mxCell id="3ZFB9mKhi2XY3Hub_Qie-92" value="&lt;blockquote style=&quot;margin: 0 0 0 40px; border: none; padding: 0px;&quot;&gt;$$u_4$$&lt;/blockquote&gt;" style="text;html=1;align=center;verticalAlign=middle;resizable=0;points=[];autosize=1;strokeColor=none;fillColor=none;shadow=1;" parent="1" vertex="1">
          <mxGeometry x="340" y="10" width="110" height="30" as="geometry" />
        </mxCell>
        <mxCell id="3ZFB9mKhi2XY3Hub_Qie-94" value="&lt;blockquote style=&quot;margin: 0 0 0 40px; border: none; padding: 0px;&quot;&gt;$$b_4u_4$$&lt;/blockquote&gt;" style="text;html=1;align=center;verticalAlign=middle;resizable=0;points=[];autosize=1;strokeColor=none;fillColor=none;flipH=1;fontColor=#000000;shadow=1;" parent="1" vertex="1">
          <mxGeometry x="330" y="80" width="130" height="30" as="geometry" />
        </mxCell>
        <mxCell id="3ZFB9mKhi2XY3Hub_Qie-95" value="" style="verticalLabelPosition=bottom;verticalAlign=top;html=1;shape=mxgraph.basic.arc;startAngle=0.6722301462187704;endAngle=0.4046382855680463;flipH=1;strokeColor=#000000;shadow=1;" parent="1" vertex="1">
          <mxGeometry x="360" y="57.5" width="80" height="42.5" as="geometry" />
        </mxCell>
        <mxCell id="3ZFB9mKhi2XY3Hub_Qie-96" value="" style="endArrow=classic;html=1;rounded=0;exitX=0.793;exitY=0.906;exitDx=0;exitDy=0;exitPerimeter=0;strokeColor=#000000;shadow=1;" parent="1" source="3ZFB9mKhi2XY3Hub_Qie-95" edge="1">
          <mxGeometry width="50" height="50" relative="1" as="geometry">
            <mxPoint x="300" y="90" as="sourcePoint" />
            <mxPoint x="390" y="100" as="targetPoint" />
          </mxGeometry>
        </mxCell>
        <mxCell id="3ZFB9mKhi2XY3Hub_Qie-98" value="&lt;blockquote style=&quot;margin: 0 0 0 40px; border: none; padding: 0px;&quot;&gt;$$z^B$$&lt;/blockquote&gt;" style="text;html=1;align=center;verticalAlign=middle;resizable=0;points=[];autosize=1;strokeColor=none;fillColor=none;fontColor=#0000FF;shadow=1;" parent="1" vertex="1">
          <mxGeometry x="250" y="97" width="110" height="30" as="geometry" />
        </mxCell>
        <mxCell id="3ZFB9mKhi2XY3Hub_Qie-99" value="&lt;blockquote style=&quot;margin: 0 0 0 40px; border: none; padding: 0px;&quot;&gt;$$x^B$$&lt;/blockquote&gt;" style="text;html=1;align=center;verticalAlign=middle;resizable=0;points=[];autosize=1;strokeColor=none;fillColor=none;fontColor=#FF0000;shadow=1;" parent="1" vertex="1">
          <mxGeometry x="260" y="183.75" width="110" height="30" as="geometry" />
        </mxCell>
        <mxCell id="3ZFB9mKhi2XY3Hub_Qie-107" value="&lt;blockquote style=&quot;margin: 0 0 0 40px; border: none; padding: 0px;&quot;&gt;$$y^W$$&lt;/blockquote&gt;" style="text;html=1;align=center;verticalAlign=middle;resizable=0;points=[];autosize=1;strokeColor=none;fillColor=none;fontColor=#009900;shadow=1;" parent="1" vertex="1">
          <mxGeometry x="90" y="199" width="110" height="30" as="geometry" />
        </mxCell>
        <mxCell id="3ZFB9mKhi2XY3Hub_Qie-108" value="" style="endArrow=classic;html=1;rounded=0;fillColor=#0050ef;strokeColor=#0000FF;shadow=1;" parent="1" edge="1">
          <mxGeometry width="50" height="50" relative="1" as="geometry">
            <mxPoint x="112" y="228.25" as="sourcePoint" />
            <mxPoint x="112" y="192" as="targetPoint" />
          </mxGeometry>
        </mxCell>
        <mxCell id="3ZFB9mKhi2XY3Hub_Qie-109" value="" style="endArrow=classic;html=1;rounded=0;fillColor=#60a917;strokeColor=#009900;shadow=1;" parent="1" edge="1">
          <mxGeometry width="50" height="50" relative="1" as="geometry">
            <mxPoint x="112" y="228.25" as="sourcePoint" />
            <mxPoint x="152" y="218.25" as="targetPoint" />
          </mxGeometry>
        </mxCell>
        <mxCell id="3ZFB9mKhi2XY3Hub_Qie-110" value="" style="endArrow=classic;html=1;rounded=0;fillColor=#e51400;strokeColor=#FF0000;shadow=1;" parent="1" edge="1">
          <mxGeometry width="50" height="50" relative="1" as="geometry">
            <mxPoint x="112" y="228.25" as="sourcePoint" />
            <mxPoint x="122" y="258.25" as="targetPoint" />
          </mxGeometry>
        </mxCell>
        <mxCell id="3ZFB9mKhi2XY3Hub_Qie-111" value="&lt;blockquote style=&quot;margin: 0 0 0 40px; border: none; padding: 0px;&quot;&gt;$$z^W$$&lt;/blockquote&gt;" style="text;html=1;align=center;verticalAlign=middle;resizable=0;points=[];autosize=1;strokeColor=none;fillColor=none;fontColor=#0000FF;" parent="1" vertex="1">
          <mxGeometry x="42" y="166" width="110" height="30" as="geometry" />
        </mxCell>
        <mxCell id="3ZFB9mKhi2XY3Hub_Qie-112" value="&lt;blockquote style=&quot;margin: 0 0 0 40px; border: none; padding: 0px;&quot;&gt;$$x^W$$&lt;/blockquote&gt;" style="text;html=1;align=center;verticalAlign=middle;resizable=0;points=[];autosize=1;strokeColor=none;fillColor=none;fontColor=#FF0000;shadow=1;" parent="1" vertex="1">
          <mxGeometry x="57" y="250" width="110" height="30" as="geometry" />
        </mxCell>
        <mxCell id="3ZFB9mKhi2XY3Hub_Qie-9" value="" style="endArrow=classic;html=1;rounded=0;shadow=1;fontFamily=Times New Roman;" parent="1" edge="1">
          <mxGeometry width="50" height="50" relative="1" as="geometry">
            <mxPoint x="199.71" y="120" as="sourcePoint" />
            <mxPoint x="199.71" y="60" as="targetPoint" />
          </mxGeometry>
        </mxCell>
        <mxCell id="3ZFB9mKhi2XY3Hub_Qie-53" value="" style="endArrow=classic;html=1;rounded=0;shadow=1;fontFamily=Times New Roman;" parent="1" edge="1">
          <mxGeometry width="50" height="50" relative="1" as="geometry">
            <mxPoint x="239.71" y="240" as="sourcePoint" />
            <mxPoint x="239.71" y="180" as="targetPoint" />
          </mxGeometry>
        </mxCell>
        <mxCell id="3ZFB9mKhi2XY3Hub_Qie-59" value="" style="endArrow=classic;html=1;rounded=0;shadow=1;fontFamily=Times New Roman;" parent="1" edge="1">
          <mxGeometry width="50" height="50" relative="1" as="geometry">
            <mxPoint x="449.71000000000004" y="200" as="sourcePoint" />
            <mxPoint x="449.71000000000004" y="140" as="targetPoint" />
          </mxGeometry>
        </mxCell>
        <mxCell id="3ZFB9mKhi2XY3Hub_Qie-93" value="" style="endArrow=classic;html=1;rounded=0;shadow=1;fontFamily=Times New Roman;" parent="1" edge="1">
          <mxGeometry width="50" height="50" relative="1" as="geometry">
            <mxPoint x="399.71000000000004" y="80" as="sourcePoint" />
            <mxPoint x="399.71000000000004" y="20" as="targetPoint" />
          </mxGeometry>
        </mxCell>
      </root>
    </mxGraphModel>
  </diagram>
</mxfile>
